<svg width="1474" height="304" viewBox="0 0 1474 304" fill="none" xmlns="http://www.w3.org/2000/svg">
<rect width="1474" height="304" rx="62" fill="#4953B8"/>
<rect width="190" height="189" transform="translate(63.5 57.5)" fill="#4953B8"/>
<path d="M193.489 98.8438H123.511C118.422 98.8438 113.969 103.495 113.969 108.811V195.189C113.969 200.505 118.422 205.156 123.511 205.156H193.489C198.578 205.156 203.031 200.505 203.031 195.189V108.811C203.031 103.495 198.578 98.8438 193.489 98.8438ZM139.415 189.209C139.415 190.538 138.143 191.867 136.871 191.867H129.237C127.964 191.867 126.692 190.538 126.692 189.209V181.236C126.692 179.907 127.964 178.578 129.237 178.578H136.871C138.143 178.578 139.415 179.907 139.415 181.236V189.209V189.209ZM139.415 162.631C139.415 163.96 138.143 165.289 136.871 165.289H129.237C127.964 165.289 126.692 163.96 126.692 162.631V154.658C126.692 153.329 127.964 152 129.237 152H136.871C138.143 152 139.415 153.329 139.415 154.658V162.631V162.631ZM164.862 189.209C164.862 190.538 163.589 191.867 162.317 191.867H154.683C153.411 191.867 152.138 190.538 152.138 189.209V181.236C152.138 179.907 153.411 178.578 154.683 178.578H162.317C163.589 178.578 164.862 179.907 164.862 181.236V189.209ZM164.862 162.631C164.862 163.96 163.589 165.289 162.317 165.289H154.683C153.411 165.289 152.138 163.96 152.138 162.631V154.658C152.138 153.329 153.411 152 154.683 152H162.317C163.589 152 164.862 153.329 164.862 154.658V162.631ZM190.308 189.209C190.308 190.538 189.036 191.867 187.763 191.867H180.129C178.857 191.867 177.585 190.538 177.585 189.209V154.658C177.585 153.329 178.857 152 180.129 152H187.763C189.036 152 190.308 153.329 190.308 154.658V189.209V189.209ZM190.308 136.053C190.308 137.382 189.036 138.711 187.763 138.711H129.237C127.964 138.711 126.692 137.382 126.692 136.053V114.791C126.692 113.462 127.964 112.133 129.237 112.133H187.763C189.036 112.133 190.308 113.462 190.308 114.791V136.053Z" fill="#DCDDE0"/>
<path d="M335.855 117.5V126.8H317.355V187H305.955V126.8H287.355V117.5H335.855ZM397.9 158.1C397.9 160.167 397.767 162.033 397.5 163.7H355.4C355.734 168.1 357.367 171.633 360.3 174.3C363.234 176.967 366.834 178.3 371.1 178.3C377.234 178.3 381.567 175.733 384.1 170.6H396.4C394.734 175.667 391.7 179.833 387.3 183.1C382.967 186.3 377.567 187.9 371.1 187.9C365.834 187.9 361.1 186.733 356.9 184.4C352.767 182 349.5 178.667 347.1 174.4C344.767 170.067 343.6 165.067 343.6 159.4C343.6 153.733 344.734 148.767 347 144.5C349.334 140.167 352.567 136.833 356.7 134.5C360.9 132.167 365.7 131 371.1 131C376.3 131 380.934 132.133 385 134.4C389.067 136.667 392.234 139.867 394.5 144C396.767 148.067 397.9 152.767 397.9 158.1ZM386 154.5C385.934 150.3 384.434 146.933 381.5 144.4C378.567 141.867 374.934 140.6 370.6 140.6C366.667 140.6 363.3 141.867 360.5 144.4C357.7 146.867 356.034 150.233 355.5 154.5H386ZM433.019 187.9C427.819 187.9 423.119 186.733 418.919 184.4C414.719 182 411.419 178.667 409.019 174.4C406.619 170.067 405.419 165.067 405.419 159.4C405.419 153.8 406.652 148.833 409.119 144.5C411.586 140.167 414.952 136.833 419.219 134.5C423.486 132.167 428.252 131 433.519 131C438.786 131 443.552 132.167 447.819 134.5C452.086 136.833 455.452 140.167 457.919 144.5C460.386 148.833 461.619 153.8 461.619 159.4C461.619 165 460.352 169.967 457.819 174.3C455.286 178.633 451.819 182 447.419 184.4C443.086 186.733 438.286 187.9 433.019 187.9ZM433.019 178C435.952 178 438.686 177.3 441.219 175.9C443.819 174.5 445.919 172.4 447.519 169.6C449.119 166.8 449.919 163.4 449.919 159.4C449.919 155.4 449.152 152.033 447.619 149.3C446.086 146.5 444.052 144.4 441.519 143C438.986 141.6 436.252 140.9 433.319 140.9C430.386 140.9 427.652 141.6 425.119 143C422.652 144.4 420.686 146.5 419.219 149.3C417.752 152.033 417.019 155.4 417.019 159.4C417.019 165.333 418.519 169.933 421.519 173.2C424.586 176.4 428.419 178 433.019 178ZM484.289 139.9C485.955 137.1 488.155 134.933 490.889 133.4C493.689 131.8 496.989 131 500.789 131V142.8H497.889C493.422 142.8 490.022 143.933 487.689 146.2C485.422 148.467 484.289 152.4 484.289 158V187H472.889V131.9H484.289V139.9ZM561.768 158.1C561.768 160.167 561.634 162.033 561.368 163.7H519.268C519.601 168.1 521.234 171.633 524.168 174.3C527.101 176.967 530.701 178.3 534.968 178.3C541.101 178.3 545.434 175.733 547.968 170.6H560.268C558.601 175.667 555.568 179.833 551.168 183.1C546.834 186.3 541.434 187.9 534.968 187.9C529.701 187.9 524.968 186.733 520.768 184.4C516.634 182 513.368 178.667 510.968 174.4C508.634 170.067 507.468 165.067 507.468 159.4C507.468 153.733 508.601 148.767 510.868 144.5C513.201 140.167 516.434 136.833 520.568 134.5C524.768 132.167 529.568 131 534.968 131C540.168 131 544.801 132.133 548.868 134.4C552.934 136.667 556.101 139.867 558.368 144C560.634 148.067 561.768 152.767 561.768 158.1ZM549.868 154.5C549.801 150.3 548.301 146.933 545.368 144.4C542.434 141.867 538.801 140.6 534.468 140.6C530.534 140.6 527.168 141.867 524.368 144.4C521.568 146.867 519.901 150.233 519.368 154.5H549.868ZM639.686 131C644.02 131 647.886 131.9 651.286 133.7C654.753 135.5 657.453 138.167 659.386 141.7C661.386 145.233 662.386 149.5 662.386 154.5V187H651.086V156.2C651.086 151.267 649.853 147.5 647.386 144.9C644.92 142.233 641.553 140.9 637.286 140.9C633.02 140.9 629.62 142.233 627.086 144.9C624.62 147.5 623.386 151.267 623.386 156.2V187H612.086V156.2C612.086 151.267 610.853 147.5 608.386 144.9C605.92 142.233 602.553 140.9 598.286 140.9C594.02 140.9 590.62 142.233 588.086 144.9C585.62 147.5 584.386 151.267 584.386 156.2V187H572.986V131.9H584.386V138.2C586.253 135.933 588.62 134.167 591.486 132.9C594.353 131.633 597.42 131 600.686 131C605.086 131 609.02 131.933 612.486 133.8C615.953 135.667 618.62 138.367 620.486 141.9C622.153 138.567 624.753 135.933 628.286 134C631.82 132 635.62 131 639.686 131ZM673.093 159.2C673.093 153.667 674.226 148.767 676.493 144.5C678.826 140.233 681.959 136.933 685.893 134.6C689.893 132.2 694.293 131 699.093 131C703.426 131 707.193 131.867 710.393 133.6C713.659 135.267 716.259 137.367 718.193 139.9V131.9H729.693V187H718.193V178.8C716.259 181.4 713.626 183.567 710.293 185.3C706.959 187.033 703.159 187.9 698.893 187.9C694.159 187.9 689.826 186.7 685.893 184.3C681.959 181.833 678.826 178.433 676.493 174.1C674.226 169.7 673.093 164.733 673.093 159.2ZM718.193 159.4C718.193 155.6 717.393 152.3 715.793 149.5C714.259 146.7 712.226 144.567 709.693 143.1C707.159 141.633 704.426 140.9 701.493 140.9C698.559 140.9 695.826 141.633 693.293 143.1C690.759 144.5 688.693 146.6 687.093 149.4C685.559 152.133 684.793 155.4 684.793 159.2C684.793 163 685.559 166.333 687.093 169.2C688.693 172.067 690.759 174.267 693.293 175.8C695.893 177.267 698.626 178 701.493 178C704.426 178 707.159 177.267 709.693 175.8C712.226 174.333 714.259 172.2 715.793 169.4C717.393 166.533 718.193 163.2 718.193 159.4ZM766.843 159.2C766.843 153.667 767.976 148.767 770.243 144.5C772.576 140.233 775.709 136.933 779.643 134.6C783.643 132.2 788.076 131 792.943 131C796.543 131 800.076 131.8 803.543 133.4C807.076 134.933 809.876 137 811.943 139.6V113H823.443V187H811.943V178.7C810.076 181.367 807.476 183.567 804.143 185.3C800.876 187.033 797.109 187.9 792.843 187.9C788.043 187.9 783.643 186.7 779.643 184.3C775.709 181.833 772.576 178.433 770.243 174.1C767.976 169.7 766.843 164.733 766.843 159.2ZM811.943 159.4C811.943 155.6 811.143 152.3 809.543 149.5C808.009 146.7 805.976 144.567 803.443 143.1C800.909 141.633 798.176 140.9 795.243 140.9C792.309 140.9 789.576 141.633 787.043 143.1C784.509 144.5 782.443 146.6 780.843 149.4C779.309 152.133 778.543 155.4 778.543 159.2C778.543 163 779.309 166.333 780.843 169.2C782.443 172.067 784.509 174.267 787.043 175.8C789.643 177.267 792.376 178 795.243 178C798.176 178 800.909 177.267 803.443 175.8C805.976 174.333 808.009 172.2 809.543 169.4C811.143 166.533 811.943 163.2 811.943 159.4ZM888.916 158.1C888.916 160.167 888.783 162.033 888.516 163.7H846.416C846.749 168.1 848.383 171.633 851.316 174.3C854.249 176.967 857.849 178.3 862.116 178.3C868.249 178.3 872.583 175.733 875.116 170.6H887.416C885.749 175.667 882.716 179.833 878.316 183.1C873.983 186.3 868.583 187.9 862.116 187.9C856.849 187.9 852.116 186.733 847.916 184.4C843.783 182 840.516 178.667 838.116 174.4C835.783 170.067 834.616 165.067 834.616 159.4C834.616 153.733 835.749 148.767 838.016 144.5C840.349 140.167 843.583 136.833 847.716 134.5C851.916 132.167 856.716 131 862.116 131C867.316 131 871.949 132.133 876.016 134.4C880.083 136.667 883.249 139.867 885.516 144C887.783 148.067 888.916 152.767 888.916 158.1ZM877.016 154.5C876.949 150.3 875.449 146.933 872.516 144.4C869.583 141.867 865.949 140.6 861.616 140.6C857.683 140.6 854.316 141.867 851.516 144.4C848.716 146.867 847.049 150.233 846.516 154.5H877.016ZM974.711 138.2C974.711 141.733 973.878 145.067 972.211 148.2C970.545 151.333 967.878 153.9 964.211 155.9C960.545 157.833 955.845 158.8 950.111 158.8H937.511V187H926.111V117.5H950.111C955.445 117.5 959.945 118.433 963.611 120.3C967.345 122.1 970.111 124.567 971.911 127.7C973.778 130.833 974.711 134.333 974.711 138.2ZM950.111 149.5C954.445 149.5 957.678 148.533 959.811 146.6C961.945 144.6 963.011 141.8 963.011 138.2C963.011 130.6 958.711 126.8 950.111 126.8H937.511V149.5H950.111ZM991.384 124.6C989.317 124.6 987.584 123.9 986.184 122.5C984.784 121.1 984.084 119.367 984.084 117.3C984.084 115.233 984.784 113.5 986.184 112.1C987.584 110.7 989.317 110 991.384 110C993.384 110 995.084 110.7 996.484 112.1C997.884 113.5 998.584 115.233 998.584 117.3C998.584 119.367 997.884 121.1 996.484 122.5C995.084 123.9 993.384 124.6 991.384 124.6ZM996.984 131.9V187H985.584V131.9H996.984ZM1025.25 141.2V171.7C1025.25 173.767 1025.72 175.267 1026.65 176.2C1027.65 177.067 1029.32 177.5 1031.65 177.5H1038.65V187H1029.65C1024.52 187 1020.58 185.8 1017.85 183.4C1015.12 181 1013.75 177.1 1013.75 171.7V141.2H1007.25V131.9H1013.75V118.2H1025.25V131.9H1038.65V141.2H1025.25ZM1045.36 159.2C1045.36 153.667 1046.49 148.767 1048.76 144.5C1051.09 140.233 1054.22 136.933 1058.16 134.6C1062.16 132.2 1066.56 131 1071.36 131C1075.69 131 1079.46 131.867 1082.66 133.6C1085.92 135.267 1088.52 137.367 1090.46 139.9V131.9H1101.96V187H1090.46V178.8C1088.52 181.4 1085.89 183.567 1082.56 185.3C1079.22 187.033 1075.42 187.9 1071.16 187.9C1066.42 187.9 1062.09 186.7 1058.16 184.3C1054.22 181.833 1051.09 178.433 1048.76 174.1C1046.49 169.7 1045.36 164.733 1045.36 159.2ZM1090.46 159.4C1090.46 155.6 1089.66 152.3 1088.06 149.5C1086.52 146.7 1084.49 144.567 1081.96 143.1C1079.42 141.633 1076.69 140.9 1073.76 140.9C1070.82 140.9 1068.09 141.633 1065.56 143.1C1063.02 144.5 1060.96 146.6 1059.36 149.4C1057.82 152.133 1057.06 155.4 1057.06 159.2C1057.06 163 1057.82 166.333 1059.36 169.2C1060.96 172.067 1063.02 174.267 1065.56 175.8C1068.16 177.267 1070.89 178 1073.76 178C1076.69 178 1079.42 177.267 1081.96 175.8C1084.49 174.333 1086.52 172.2 1088.06 169.4C1089.66 166.533 1090.46 163.2 1090.46 159.4ZM1085.86 117.1L1063.76 128V119.6L1085.86 107.4V117.1ZM1139.13 131C1143.4 131 1147.16 131.867 1150.43 133.6C1153.76 135.267 1156.36 137.367 1158.23 139.9V131.9H1169.73V187.9C1169.73 192.967 1168.66 197.467 1166.53 201.4C1164.4 205.4 1161.3 208.533 1157.23 210.8C1153.23 213.067 1148.43 214.2 1142.83 214.2C1135.36 214.2 1129.16 212.433 1124.23 208.9C1119.3 205.433 1116.5 200.7 1115.83 194.7H1127.13C1128 197.567 1129.83 199.867 1132.63 201.6C1135.5 203.4 1138.9 204.3 1142.83 204.3C1147.43 204.3 1151.13 202.9 1153.93 200.1C1156.8 197.3 1158.23 193.233 1158.23 187.9V178.7C1156.3 181.3 1153.66 183.5 1150.33 185.3C1147.06 187.033 1143.33 187.9 1139.13 187.9C1134.33 187.9 1129.93 186.7 1125.93 184.3C1122 181.833 1118.86 178.433 1116.53 174.1C1114.26 169.7 1113.13 164.733 1113.13 159.2C1113.13 153.667 1114.26 148.767 1116.53 144.5C1118.86 140.233 1122 136.933 1125.93 134.6C1129.93 132.2 1134.33 131 1139.13 131ZM1158.23 159.4C1158.23 155.6 1157.43 152.3 1155.83 149.5C1154.3 146.7 1152.26 144.567 1149.73 143.1C1147.2 141.633 1144.46 140.9 1141.53 140.9C1138.6 140.9 1135.86 141.633 1133.33 143.1C1130.8 144.5 1128.73 146.6 1127.13 149.4C1125.6 152.133 1124.83 155.4 1124.83 159.2C1124.83 163 1125.6 166.333 1127.13 169.2C1128.73 172.067 1130.8 174.267 1133.33 175.8C1135.93 177.267 1138.66 178 1141.53 178C1144.46 178 1147.2 177.267 1149.73 175.8C1152.26 174.333 1154.3 172.2 1155.83 169.4C1157.43 166.533 1158.23 163.2 1158.23 159.4ZM1208.61 187.9C1203.41 187.9 1198.71 186.733 1194.51 184.4C1190.31 182 1187.01 178.667 1184.61 174.4C1182.21 170.067 1181.01 165.067 1181.01 159.4C1181.01 153.8 1182.24 148.833 1184.71 144.5C1187.17 140.167 1190.54 136.833 1194.81 134.5C1199.07 132.167 1203.84 131 1209.11 131C1214.37 131 1219.14 132.167 1223.41 134.5C1227.67 136.833 1231.04 140.167 1233.51 144.5C1235.97 148.833 1237.21 153.8 1237.21 159.4C1237.21 165 1235.94 169.967 1233.41 174.3C1230.87 178.633 1227.41 182 1223.01 184.4C1218.67 186.733 1213.87 187.9 1208.61 187.9ZM1208.61 178C1211.54 178 1214.27 177.3 1216.81 175.9C1219.41 174.5 1221.51 172.4 1223.11 169.6C1224.71 166.8 1225.51 163.4 1225.51 159.4C1225.51 155.4 1224.74 152.033 1223.21 149.3C1221.67 146.5 1219.64 144.4 1217.11 143C1214.57 141.6 1211.84 140.9 1208.91 140.9C1205.97 140.9 1203.24 141.6 1200.71 143C1198.24 144.4 1196.27 146.5 1194.81 149.3C1193.34 152.033 1192.61 155.4 1192.61 159.4C1192.61 165.333 1194.11 169.933 1197.11 173.2C1200.17 176.4 1204.01 178 1208.61 178ZM1259.87 139.9C1261.54 137.1 1263.74 134.933 1266.47 133.4C1269.27 131.8 1272.57 131 1276.37 131V142.8H1273.47C1269.01 142.8 1265.61 143.933 1263.27 146.2C1261.01 148.467 1259.87 152.4 1259.87 158V187H1248.47V131.9H1259.87V139.9ZM1283.05 159.2C1283.05 153.667 1284.19 148.767 1286.45 144.5C1288.79 140.233 1291.92 136.933 1295.85 134.6C1299.85 132.2 1304.25 131 1309.05 131C1313.39 131 1317.15 131.867 1320.35 133.6C1323.62 135.267 1326.22 137.367 1328.15 139.9V131.9H1339.65V187H1328.15V178.8C1326.22 181.4 1323.59 183.567 1320.25 185.3C1316.92 187.033 1313.12 187.9 1308.85 187.9C1304.12 187.9 1299.79 186.7 1295.85 184.3C1291.92 181.833 1288.79 178.433 1286.45 174.1C1284.19 169.7 1283.05 164.733 1283.05 159.2ZM1328.15 159.4C1328.15 155.6 1327.35 152.3 1325.75 149.5C1324.22 146.7 1322.19 144.567 1319.65 143.1C1317.12 141.633 1314.39 140.9 1311.45 140.9C1308.52 140.9 1305.79 141.633 1303.25 143.1C1300.72 144.5 1298.65 146.6 1297.05 149.4C1295.52 152.133 1294.75 155.4 1294.75 159.2C1294.75 163 1295.52 166.333 1297.05 169.2C1298.65 172.067 1300.72 174.267 1303.25 175.8C1305.85 177.267 1308.59 178 1311.45 178C1314.39 178 1317.12 177.267 1319.65 175.8C1322.19 174.333 1324.22 172.2 1325.75 169.4C1327.35 166.533 1328.15 163.2 1328.15 159.4ZM1374.63 187.9C1370.29 187.9 1366.39 187.133 1362.93 185.6C1359.53 184 1356.83 181.867 1354.83 179.2C1352.83 176.467 1351.76 173.433 1351.63 170.1H1363.43C1363.63 172.433 1364.73 174.4 1366.73 176C1368.79 177.533 1371.36 178.3 1374.43 178.3C1377.63 178.3 1380.09 177.7 1381.83 176.5C1383.63 175.233 1384.53 173.633 1384.53 171.7C1384.53 169.633 1383.53 168.1 1381.53 167.1C1379.59 166.1 1376.49 165 1372.23 163.8C1368.09 162.667 1364.73 161.567 1362.13 160.5C1359.53 159.433 1357.26 157.8 1355.33 155.6C1353.46 153.4 1352.53 150.5 1352.53 146.9C1352.53 143.967 1353.39 141.3 1355.13 138.9C1356.86 136.433 1359.33 134.5 1362.53 133.1C1365.79 131.7 1369.53 131 1373.73 131C1379.99 131 1385.03 132.6 1388.83 135.8C1392.69 138.933 1394.76 143.233 1395.03 148.7H1383.63C1383.43 146.233 1382.43 144.267 1380.63 142.8C1378.83 141.333 1376.39 140.6 1373.33 140.6C1370.33 140.6 1368.03 141.167 1366.43 142.3C1364.83 143.433 1364.03 144.933 1364.03 146.8C1364.03 148.267 1364.56 149.5 1365.63 150.5C1366.69 151.5 1367.99 152.3 1369.53 152.9C1371.06 153.433 1373.33 154.133 1376.33 155C1380.33 156.067 1383.59 157.167 1386.13 158.3C1388.73 159.367 1390.96 160.967 1392.83 163.1C1394.69 165.233 1395.66 168.067 1395.73 171.6C1395.73 174.733 1394.86 177.533 1393.13 180C1391.39 182.467 1388.93 184.4 1385.73 185.8C1382.59 187.2 1378.89 187.9 1374.63 187.9Z" fill="#F0F1F3"/>
</svg>
